first trial
nRows=4
nColumns=179

# SIMM Motion File Header:
name first trial
datacolumns 179
datarows 4
otherdata 1
endheader
time	pelvis_tx	pelvis_ty	pelvis_tz	pelvis_list	pelvis_rotation	pelvis_tilt	hip_flexion_r	hip_adduction_r	hip_rotation_r	knee_angle_r	ankle_angle_r	hip_flexion_l	hip_adduction_l	hip_rotation_l	knee_angle_l	ankle_angle_l	lumbar_extension	lumbar_bending	lumbar_rotation	arm_add_r	arm_rot_r	arm_flex_r	elbow_flex_r	pro_sup_r	wrist_dev_r	wrist_flex_r	arm_add_l	arm_rot_l	arm_flex_l	elbow_flex_l	pro_sup_l	wrist_dev_l	wrist_flex_l	subtalar_angle_r	mtp_angle_r	subtalar_angle_l	mtp_angle_l	R.ASIS_tx	R.ASIS_ty	R.ASIS_tz	L.ASIS_tx	L.ASIS_ty	L.ASIS_tz	V.Sacral_tx	V.Sacral_ty	V.Sacral_tz	R.Thigh.Upper_tx	R.Thigh.Upper_ty	R.Thigh.Upper_tz	R.Thigh.Front_tx	R.Thigh.Front_ty	R.Thigh.Front_tz	R.Thigh.Rear_tx	R.Thigh.Rear_ty	R.Thigh.Rear_tz	L.Thigh.Upper_tx	L.Thigh.Upper_ty	L.Thigh.Upper_tz	L.Thigh.Front_tx	L.Thigh.Front_ty	L.Thigh.Front_tz	L.Thigh.Rear_tx	L.Thigh.Rear_ty	L.Thigh.Rear_tz	R.Shank.Upper_tx	R.Shank.Upper_ty	R.Shank.Upper_tz	R.Shank.Front_tx	R.Shank.Front_ty	R.Shank.Front_tz	R.Shank.Rear_tx	R.Shank.Rear_ty	R.Shank.Rear_tz	L.Shank.Upper_tx	L.Shank.Upper_ty	L.Shank.Upper_tz	L.Shank.Front_tx	L.Shank.Front_ty	L.Shank.Front_tz	L.Shank.Rear_tx	L.Shank.Rear_ty	L.Shank.Rear_tz	R.Heel_tx	R.Heel_ty	R.Heel_tz	R.Midfoot.Sup_tx	R.Midfoot.Sup_ty	R.Midfoot.Sup_tz	R.Midfoot.Lat_tx	R.Midfoot.Lat_ty	R.Midfoot.Lat_tz	R.Toe.Tip_tx	R.Toe.Tip_ty	R.Toe.Tip_tz	L.Heel_tx	L.Heel_ty	L.Heel_tz	L.Midfoot.Sup_tx	L.Midfoot.Sup_ty	L.Midfoot.Sup_tz	L.Midfoot.Lat_tx	L.Midfoot.Lat_ty	L.Midfoot.Lat_tz	L.Toe.Tip_tx	L.Toe.Tip_ty	L.Toe.Tip_tz	Sternum_tx	Sternum_ty	Sternum_tz	R.Acromium_tx	R.Acromium_ty	R.Acromium_tz	L.Acromium_tx	L.Acromium_ty	L.Acromium_tz	R.Bicep_tx	R.Bicep_ty	R.Bicep_tz	L.Bicep_tx	L.Bicep_ty	L.Bicep_tz	R.Elbow_tx	R.Elbow_ty	R.Elbow_tz	L.Elbow_tx	L.Elbow_ty	L.Elbow_tz	R.Wrist.Med_tx	R.Wrist.Med_ty	R.Wrist.Med_tz	R.Wrist.Lat_tx	R.Wrist.Lat_ty	R.Wrist.Lat_tz	L.Wrist.Med_tx	L.Wrist.Med_ty	L.Wrist.Med_tz	L.Wrist.Lat_tx	L.Wrist.Lat_ty	L.Wrist.Lat_tz	R.Toe.Lat_tx	R.Toe.Lat_ty	R.Toe.Lat_tz	R.Toe.Med_tx	R.Toe.Med_ty	R.Toe.Med_tz	L.Toe.Lat_tx	L.Toe.Lat_ty	L.Toe.Lat_tz	L.Toe.Med_tx	L.Toe.Med_ty	L.Toe.Med_tz	R.Temple_tx	R.Temple_ty	R.Temple_tz	L.Temple_tx	L.Temple_ty	L.Temple_tz	Top.Head_tx	Top.Head_ty	Top.Head_tz	ground_force_vx	ground_force_vy	ground_force_vz	ground_force_px	ground_force_py	ground_force_pz	ground_force_vx	ground_force_vy	ground_force_vz	ground_force_px	ground_force_py	ground_force_pz	ground_torque_x	ground_torque_y	ground_torque_z	ground_torque_x	ground_torque_y	ground_torque_z
      1.20000000	      0.57604033	      1.01894077	      0.04846257	     -4.44491187	     -1.91455865	      9.33156983	    -24.66058292	      5.82153873	      0.88064553	     -4.49395511	     13.50989096	     13.56499679	     -5.60987702	     -4.86340909	     -0.44773012	      0.91096623	    -24.14672492	      4.67358639	     -0.59761464	     -9.56866473	     56.63285139	     29.67619563	      0.00000000	     65.82338372	      0.00000000	      0.00000000	     -7.79056162	    -27.22827650	      6.25354137	      0.00000000	     90.00000018	      0.00000000	     -2.75019742	      0.00000000	      0.00000000	      0.00000000	      0.00000000	      0.59057294	      1.05805444	      0.17931395	      0.60659998	      1.05077039	     -0.08330563	      0.39940009	      1.06052417	      0.04370006	      0.49081909	      0.74362622	      0.21525713	      0.54223846	      0.67077106	      0.12542156	      0.45523129	      0.62778046	      0.20178172	      0.62019812	      0.75003888	     -0.13964091	      0.71030347	      0.73752234	     -0.06746902	      0.65151874	      0.64528668	     -0.12987531	      0.34167801	      0.47132721	      0.18447920	      0.40856949	      0.41585760	      0.13388264	      0.33036133	      0.38446988	      0.18757945	      0.71048303	      0.45001099	     -0.12337328	      0.77742700	      0.42429803	     -0.07635629	      0.70756396	      0.40223123	     -0.13061047	      0.17491431	      0.09438618	      0.09206765	      0.32103391	      0.08379121	      0.06752274	      0.30493973	      0.06894331	      0.17470090	      0.45541403	      0.04426223	      0.11943226	      0.79700592	      0.06854844	     -0.04280907	      0.94967523	      0.14104283	     -0.02618067	      0.93233075	      0.12793854	     -0.12178487	      1.05967822	      0.16678601	     -0.06169559	      0.63064673	      1.36028674	      0.03347805	      0.54392993	      1.45217212	      0.24715874	      0.55918799	      1.47821765	     -0.17055269	      0.57466711	      1.25179285	      0.29468225	      0.53482611	      1.24352014	     -0.20586768	      0.55243976	      1.14537134	      0.33103156	      0.46546936	      1.15814185	     -0.24057771	      0.75919922	      0.98074066	      0.27981241	      0.73754907	      0.95146594	      0.33490747	      0.55968091	      0.92350568	     -0.20332207	      0.50990198	      0.91581836	     -0.25949789	      0.38492978	      0.03678189	      0.19517854	      0.40032056	      0.04108836	      0.08660834	      1.00080151	      0.13261819	     -0.13413728	      1.01667676	      0.14530399	     -0.03325708	      0.70637201	      1.58157178	      0.12223056	      0.71652533	      1.58628015	     -0.01638228	      0.71813354	      1.75862708	      0.06315164	     77.59060723	    751.92414365	    -44.62512451	      0.40513424	     -0.00750000	      0.13612610	      0.00000000	      0.00000000	      0.00000000	      0.74506750	     -0.00750000	     -0.03869142	      0.00000000	      4.33366528	      0.00000000	      0.00000000	      0.00000000	      0.00000000
      1.21700000	      0.57562016	      1.01674765	      0.04765935	     -4.51231271	     -2.14182587	      9.54357895	    -25.67473789	      5.62407629	      1.21180968	     -5.30883756	     14.03450358	     13.54200480	     -5.49197321	     -4.18050258	     -0.31706037	      1.26149546	    -24.59667828	      4.33455027	     -0.58439758	     -9.41152902	     56.67857198	     29.71044497	      0.00000000	     65.77588126	      0.00000000	      0.00000000	     -7.94806666	    -27.36843181	      6.55136962	      0.00000000	     90.00000018	      0.00000000	     -2.80749320	      0.00000000	      0.00000000	      0.00000000	      0.00000000	      0.58953101	      1.05578406	      0.17799529	      0.60597797	      1.04818945	     -0.08282168	      0.39959836	      1.05732422	      0.04137899	      0.48726086	      0.74279419	      0.21519194	      0.53947742	      0.66914642	      0.12609252	      0.45053992	      0.62710083	      0.20153764	      0.62238049	      0.74749506	     -0.13978784	      0.71156750	      0.73531934	     -0.06688109	      0.65441504	      0.64366632	     -0.12989694	      0.33393033	      0.47245877	      0.18428876	      0.39889218	      0.41554428	      0.13526654	      0.31940030	      0.38627563	      0.18820610	      0.71352655	      0.44799835	     -0.12333543	      0.78146454	      0.42314261	     -0.07467016	      0.71153217	      0.40005649	     -0.13012273	      0.15766725	      0.09883247	      0.09244188	      0.30368005	      0.08533725	      0.06753317	      0.28723203	      0.07007056	      0.17489330	      0.43618048	      0.04393404	      0.11953439	      0.80116632	      0.06748493	     -0.04149631	      0.95265076	      0.14096266	     -0.02201186	      0.93750629	      0.12756921	     -0.11800569	      1.06360168	      0.16864880	     -0.05566738	      0.63084503	      1.35749695	      0.03091131	      0.54352795	      1.44989221	      0.24363155	      0.55933527	      1.47410852	     -0.17324632	      0.57441437	      1.25038159	      0.29232864	      0.53699042	      1.23931396	     -0.20884972	      0.55144147	      1.14347070	      0.32885178	      0.46796310	      1.15341980	     -0.24274193	      0.75748230	      0.97808710	      0.27906912	      0.73622662	      0.94881708	      0.33371359	      0.56244409	      0.91885162	     -0.20442848	      0.51194006	      0.91139526	     -0.26108676	      0.36558441	      0.03645559	      0.19611066	      0.38247852	      0.04074858	      0.08650454	      1.00650647	      0.13335187	     -0.12894681	      1.02000305	      0.14649858	     -0.02761137	      0.70647351	      1.57868604	      0.11909741	      0.71643176	      1.58305859	     -0.01992310	      0.71791907	      1.75587769	      0.05968394	     90.08455966	    763.81908635	    -44.48353046	      0.38646617	     -0.00750000	      0.13545689	      0.00000000	      0.00000000	      0.00000000	      0.75706971	     -0.00750000	     -0.03798315	      0.00000000	      4.26001137	      0.00000000	      0.00000000	      0.00000000	      0.00000000
      1.23300000	      0.57586729	      1.01486632	      0.04662177	     -4.40418789	     -2.44974810	      9.72092406	    -26.50459010	      5.19526921	      1.60207358	     -6.43501660	     14.55522095	     13.69815502	     -5.20781998	     -3.72327462	     -1.53257307	      1.39998547	    -24.90367200	      3.80568032	     -0.58024206	     -9.23421283	     56.73196853	     29.45792401	      0.00000000	     65.75365622	      0.00000000	      0.00000000	     -8.24055393	    -27.36790744	      6.86441344	      0.00000000	     90.00000018	      0.00000000	     -2.86478898	      0.00000000	      0.00000000	      0.00000000	      0.00000000	      0.58914038	      1.05357117	      0.17718597	      0.60692841	      1.04608362	     -0.08365778	      0.40022281	      1.05446863	      0.03885455	      0.48448654	      0.74141046	      0.21488336	      0.53628729	      0.66633276	      0.12742234	      0.44606454	      0.62644409	      0.20196437	      0.62570721	      0.74553015	     -0.13977257	      0.71512872	      0.73484082	     -0.06642079	      0.65865741	      0.64264990	     -0.12790881	      0.32786099	      0.47348669	      0.18432344	      0.39098755	      0.41408047	      0.13558351	      0.31095193	      0.38752740	      0.18817488	      0.71868030	      0.44617996	     -0.12181223	      0.78500330	      0.41986124	     -0.07329517	      0.71558722	      0.39837427	     -0.12927686	      0.14109624	      0.10424557	      0.09301131	      0.28663104	      0.08710492	      0.06783574	      0.26974652	      0.07136285	      0.17527075	      0.41702173	      0.04370027	      0.11931948	      0.79795367	      0.06646886	     -0.03983642	      0.94980066	      0.13655009	     -0.01804606	      0.93615497	      0.12328240	     -0.11428417	      1.06180688	      0.16318205	     -0.05005695	      0.63033417	      1.35464819	      0.02816659	      0.54140997	      1.44778357	      0.24038622	      0.56091895	      1.47058606	     -0.17713181	      0.57310541	      1.24808948	      0.28986349	      0.53854041	      1.23457166	     -0.21095508	      0.55028625	      1.14204126	      0.32641983	      0.47052704	      1.14905164	     -0.24613695	      0.75517987	      0.97430115	      0.27758371	      0.73258197	      0.94546948	      0.33303384	      0.56533234	      0.91462415	     -0.20749100	      0.51715411	      0.90638477	     -0.26417557	      0.34939938	      0.03628914	      0.19731949	      0.36447781	      0.04022627	      0.08647624	      1.00539923	      0.12829727	     -0.12412592	      1.01740253	      0.14151602	     -0.02249796	      0.70600604	      1.57668140	      0.11556897	      0.71631006	      1.58032422	     -0.02310875	      0.71772784	      1.75337634	      0.05543489	    101.43069802	    768.94270795	    -44.09967218	      0.36897443	     -0.00750000	      0.13494790	     -1.94421644	      3.68969774	     -0.89911078	      0.76627619	     -0.00750000	     -0.03743986	      0.00000000	      4.14118020	      0.00000000	      0.09390513	     -0.02293773	     -0.05469505
      1.25000000	      0.57725944	      1.01336857	      0.04498915	     -4.24257266	     -3.03080632	      9.74887540	    -27.01591763	      4.54204304	      2.18643466	     -7.98330802	     14.96959848	     14.03770500	     -4.89181971	     -3.56198356	     -3.77329373	      1.24799807	    -25.00504079	      3.20273768	     -0.32474433	     -9.23833467	     57.36914256	     29.01667894	      0.00000000	     64.97449452	      0.00000000	      0.00000000	     -8.29447467	    -27.32327405	      7.08121869	      0.00000000	     90.00000018	      0.00000000	     -2.92208476	      0.00000000	      0.00000000	      0.00000000	      0.00000000	      0.58890717	      1.05190112	      0.17609511	      0.61134204	      1.04415649	     -0.08637766	      0.40139194	      1.05209277	      0.03613618	      0.48183603	      0.73972626	      0.21243568	      0.53563422	      0.66432666	      0.12792893	      0.44413943	      0.62548486	      0.20189241	      0.62954950	      0.74399292	     -0.13954884	      0.72069708	      0.73576355	     -0.06712119	      0.66583374	      0.64214905	     -0.12859685	      0.32183170	      0.47489267	      0.18539595	      0.38459000	      0.41324869	      0.13552921	      0.30459244	      0.38939871	      0.18893301	      0.72384485	      0.44455359	     -0.12093961	      0.78816528	      0.41482520	     -0.07033574	      0.71919653	      0.39706677	     -0.12796164	      0.12530895	      0.11085136	      0.09372926	      0.26994714	      0.08909666	      0.06843435	      0.25255435	      0.07293040	      0.17582886	      0.39790057	      0.04357354	      0.11886555	      0.78892682	      0.06594314	     -0.03827882	      0.94239545	      0.12858430	     -0.01468241	      0.92993909	      0.11620587	     -0.11095637	      1.05550928	      0.15162457	     -0.04474218	      0.63076080	      1.35258740	      0.02566518	      0.54136682	      1.44678259	      0.23677754	      0.56110138	      1.46669617	     -0.18034334	      0.57292871	      1.24715051	      0.28637149	      0.54128284	      1.23120703	     -0.21423495	      0.54897815	      1.14113977	      0.32374670	      0.47446347	      1.14454980	     -0.24907195	      0.75273077	      0.97003516	      0.27638257	      0.72937238	      0.94205615	      0.33287167	      0.56922961	      0.91014325	     -0.20923543	      0.52103668	      0.90247571	     -0.26648422	      0.32716116	      0.03549563	      0.19686848	      0.34650333	      0.03958302	      0.08643159	      0.99893854	      0.11870323	     -0.11993378	      1.01032526	      0.13137224	     -0.01807142	      0.70625031	      1.57483435	      0.11183164	      0.71732501	      1.57833398	     -0.02665863	      0.71699762	      1.75147339	      0.05117855	    112.78887502	    761.93868153	    -42.41862836	      0.35041338	     -0.00750000	      0.13472873	      6.25807536	     32.37669720	     -1.31483151	      0.77357900	     -0.00750000	     -0.03700890	      0.00000000	      3.85726454	      0.00000000	      0.21148586	      0.43791016	      0.54436294
